<svg width="108" height="140" viewBox="0 0 108 140" fill="none" xmlns="http://www.w3.org/2000/svg">
<path fill-rule="evenodd" clip-rule="evenodd" d="M106.374 67.4626C106.374 95.2 82.9259 117.686 54.0006 117.686C25.0758 117.686 1.62732 95.2 1.62732 67.4626C1.62732 39.7246 25.0758 17.2384 54.0006 17.2384C82.9259 17.2384 106.374 39.7246 106.374 67.4626Z" fill="#D33833"/>
<path d="M3.7616 79.9013C3.7616 79.9013 -0.0298861 27.5267 51.4462 26.0301L47.8551 20.4185L19.9226 29.2102L11.9417 37.8144L4.95871 50.3473L0.968018 64.9374L2.16513 74.664" fill="#EF3D3A"/>
<path d="M18.1293 33.2011C8.94022 42.0158 3.25395 54.1862 3.25395 67.65C3.25395 81.1111 8.94022 93.2831 18.1293 102.096C27.3227 110.909 39.9927 116.347 53.9999 116.347C68.0074 116.347 80.6783 110.909 89.8709 102.096C99.0594 93.2831 104.747 81.1111 104.747 67.65C104.747 54.1862 99.0594 42.0158 89.8709 33.2011C80.6783 24.3898 68.0074 18.9516 53.9999 18.9505C39.9927 18.9516 27.3227 24.3898 18.1293 33.2011ZM15.8033 104.228C6.03746 94.8647 0 81.9242 0 67.65C0 53.3736 6.03746 40.4344 15.8033 31.0704C25.5668 21.7046 39.082 15.8994 53.9999 15.9011C68.9178 15.8994 82.4344 21.7046 92.1963 31.0704C101.963 40.4344 108.001 53.3747 108 67.65C108.001 81.9242 101.963 94.8647 92.1963 104.228C82.4344 113.593 68.9178 119.398 53.9999 119.398C39.082 119.398 25.5668 113.593 15.8033 104.228Z" fill="#231F20"/>
<path fill-rule="evenodd" clip-rule="evenodd" d="M76.0472 67.741L68.0661 68.8633L57.2919 69.9856L50.3084 70.1725L43.5251 69.9856L38.3373 68.489L33.7483 63.8128L30.1569 54.2731L29.359 52.2154L24.5705 50.7193L21.7772 46.4169L19.782 40.2442L21.9771 34.8195L27.1642 33.136L31.3541 35.0069L33.3497 39.1219L35.7439 38.7476L36.5416 37.8127L35.7439 33.5103L35.544 28.0856L36.7411 20.6036L36.6943 16.3299L40.3324 10.8771L46.7171 6.57468L57.8905 2.08542L70.2604 3.76889L81.0344 11.064L86.0228 18.5459L89.2149 23.9706L90.0127 37.4384L87.6185 49.0359L83.2293 59.3236L79.0394 64.7483" fill="#F0D6B7"/>
<path fill-rule="evenodd" clip-rule="evenodd" d="M69.2632 100.101L40.7316 101.223V105.712L43.1258 121.425L41.9287 122.734L21.9771 116.374L20.5801 114.13L18.585 92.9931L13.9967 80.2733L12.9987 77.2807L28.9599 66.9929L33.9482 65.122L38.3373 70.1725L42.1281 73.3526L46.5179 74.6617L48.5128 75.2229L50.907 84.9495L52.7027 87.0071L57.292 85.5106L54.0993 91.3096L71.4575 98.9784L69.2632 100.101Z" fill="#335061"/>
<path fill-rule="evenodd" clip-rule="evenodd" d="M21.9771 34.8195L27.1642 33.136L31.3541 35.0069L33.3496 39.1219L35.7439 38.7476L36.3424 36.503L35.1453 32.2011L36.3424 21.9128L35.3445 16.3013L38.9359 12.3732L46.7171 6.5747L44.5223 3.76891L33.5488 8.81933L28.9598 12.1863L26.3662 17.4236L22.3757 22.474L21.1786 28.4599L21.9771 34.8195Z" fill="#6D6B6D"/>
<path fill-rule="evenodd" clip-rule="evenodd" d="M30.157 17.2367C30.157 17.2367 33.1498 10.3159 45.1209 6.94898C57.092 3.58203 45.7195 4.51692 45.7195 4.51692L32.7511 9.19362L27.7628 13.8697L25.5685 17.611L30.157 17.2367Z" fill="#DCD9D8"/>
<path fill-rule="evenodd" clip-rule="evenodd" d="M24.1714 33.5103C24.1714 33.5103 19.9815 20.4162 35.9431 18.5459L35.3445 16.3013L24.3713 18.7333L21.1786 28.4599L21.9771 34.8195L24.1714 33.5103Z" fill="#DCD9D8"/>
<path fill-rule="evenodd" clip-rule="evenodd" d="M30.5561 50.9062L33.1685 48.5331C33.1685 48.5331 34.3476 48.6616 34.5468 49.9708C34.746 51.2805 35.3445 63.0648 43.9238 69.425C44.7063 70.0052 37.5396 68.489 37.5396 68.489L31.1546 59.1367" fill="#F7E4CD"/>
<path fill-rule="evenodd" clip-rule="evenodd" d="M67.2687 47.3524C67.2687 47.3524 67.7338 41.6825 69.3625 42.1185C70.9912 42.5545 70.9912 44.0814 70.9912 44.0814C70.9912 44.0814 67.0359 46.4804 67.2687 47.3524Z" fill="#F7E4CD"/>
<path d="M83.8279 26.5895C83.8279 26.5895 80.5394 27.2405 80.2365 29.9565C79.9336 32.6731 83.8279 30.5176 84.4264 30.3308" fill="#F7E4CD"/>
<path d="M59.6862 26.777C59.6862 26.777 55.2964 27.3381 55.2964 29.9565C55.2964 32.5754 60.2849 32.3885 61.6813 31.2662" fill="#F7E4CD"/>
<path fill-rule="evenodd" clip-rule="evenodd" d="M32.5512 38.935C32.5512 38.935 24.9692 34.6326 24.1714 38.7481C23.3734 42.8631 21.5773 45.8563 25.3685 50.1582L22.7749 49.4101L20.3806 43.6117L19.5829 38.0001L24.1714 33.5103L29.359 33.8846L32.3518 36.1292L32.5512 38.935Z" fill="#F7E4CD"/>
<path fill-rule="evenodd" clip-rule="evenodd" d="M36.1425 27.1507C36.1425 27.1507 39.5344 10.6902 56.6934 7.51015C70.82 4.89235 78.2409 8.07131 81.0344 11.064C81.0344 11.064 68.4647 -2.96443 56.4935 1.33741C44.5223 5.63981 35.7439 13.496 35.9431 18.5459C36.2828 27.1473 36.1425 27.1507 36.1425 27.1507Z" fill="#F7E4CD"/>
<path fill-rule="evenodd" clip-rule="evenodd" d="M82.4314 12.9343C82.4314 12.9343 76.6458 12.7474 76.4459 17.611C76.4459 17.611 76.4453 18.359 76.8445 19.1071C76.8445 19.1071 81.4342 14.2435 84.2271 16.8624" fill="#F7E4CD"/>
<path fill-rule="evenodd" clip-rule="evenodd" d="M57.0956 19.6138C57.0956 19.6138 56.0995 12.1487 49.3108 16.4887C44.9215 19.2945 45.3208 23.2226 46.1186 23.9706C46.9166 24.7192 46.6996 26.2259 47.3071 25.1917C47.9143 24.1575 47.7143 20.7905 49.9094 19.8556C52.1042 18.9202 55.702 17.8753 57.0956 19.6138Z" fill="#F7E4CD"/>
<path fill-rule="evenodd" clip-rule="evenodd" d="M38.3373 70.1725L19.5829 78.0287C19.5829 78.0287 27.3641 107.022 23.3734 116.001L20.5801 115.066L20.3806 104.029L15.1938 83.0797L12.9987 77.2806L32.5512 64.9357L38.3373 70.1725Z" fill="#49728B"/>
<path fill-rule="evenodd" clip-rule="evenodd" d="M40.2658 86.2088L42.9266 89.2524V100.476H39.7339C39.7339 100.476 39.3352 92.6194 39.3352 91.6838C39.3352 90.7485 39.7339 87.3815 39.7339 87.3815" fill="#49728B"/>
<path fill-rule="evenodd" clip-rule="evenodd" d="M40.3324 102.159L31.3541 102.533L33.9482 104.216L40.3324 105.152" fill="#49728B"/>
<path fill-rule="evenodd" clip-rule="evenodd" d="M71.0589 100.288L78.4409 100.101L80.2365 117.31L72.6546 118.245L71.0589 100.288Z" fill="#335061"/>
<path fill-rule="evenodd" clip-rule="evenodd" d="M73.0538 100.288L84.2271 99.727C84.2271 99.727 88.8156 88.878 88.8156 88.3168C88.8156 87.7557 92.8062 72.6045 92.8062 72.6045L83.8279 63.8134L82.0322 62.3168L77.2437 66.8061V84.202L73.0538 100.288Z" fill="#335061"/>
<path fill-rule="evenodd" clip-rule="evenodd" d="M78.0416 98.9789L71.0589 100.288L72.0561 105.526C74.6496 106.648 79.0394 103.655 79.0394 103.655" fill="#49728B"/>
<path fill-rule="evenodd" clip-rule="evenodd" d="M78.2415 66.2449L92.2076 75.9715L92.6069 71.4822L82.0322 62.3168L78.2415 66.2449Z" fill="#49728B"/>
<path fill-rule="evenodd" clip-rule="evenodd" d="M47.2566 137.139L43.1258 121.425L41.0713 109.83L40.7316 101.223L59.4274 100.29L71.0589 100.288L70.0012 119.93L71.7969 135.082L71.5976 137.888L56.4346 139.01L47.2566 137.139Z" fill="white"/>
<path fill-rule="evenodd" clip-rule="evenodd" d="M68.4647 100.101C68.4647 100.101 67.4675 119.555 70.4603 133.396C70.4603 133.396 64.4747 136.951 55.6954 137.886L72.4553 137.325L74.4503 136.202L72.056 105.526L71.4575 98.9784" fill="#DCD9D8"/>
<path fill-rule="evenodd" clip-rule="evenodd" d="M80.5765 115.815L88.3578 113.758L103.122 113.01L105.317 106.65L101.326 95.6137L96.7376 95.0525L90.3528 96.923L84.2271 99.727L80.9752 99.1676L78.4409 100.101" fill="white"/>
<path fill-rule="evenodd" clip-rule="evenodd" d="M80.4359 112.072C80.4359 112.072 85.6229 109.828 86.4214 110.015L84.2271 99.727L86.8207 98.7921C86.8207 98.7921 88.6163 108.519 88.6163 109.641C88.6163 109.641 99.789 110.202 100.787 110.202C100.787 110.202 103.181 105.9 102.582 101.41L104.777 107.396L104.977 110.763L101.785 115.252L98.1932 116.001L92.2077 115.814L90.2127 113.382L83.2293 114.317L81.0344 115.066" fill="#DCD9D8"/>
<path d="M72.5954 98.7939L68.2061 88.3187L63.617 82.1459C63.617 82.1459 64.6142 79.527 66.0112 79.527C67.4083 79.527 70.6004 79.527 70.6004 79.527L74.9896 81.0236L74.5909 87.9445L72.5954 98.7939Z" fill="white"/>
<path fill-rule="evenodd" clip-rule="evenodd" d="M73.4531 95.2377C73.4531 95.2377 67.8662 85.1373 67.8662 83.6408C67.8662 83.6408 68.8634 81.3962 70.2604 81.9573C71.6574 82.5185 74.6502 84.0145 74.6502 84.0145V80.4607L67.8662 79.151L63.2776 79.7121L71.0589 96.9212L72.6546 97.1086" fill="#DCD9D8"/>
<path d="M49.0524 70.549L43.5251 69.9856L38.3373 68.489V70.1725L40.8721 72.7931L48.8528 76.16" fill="white"/>
<path fill-rule="evenodd" clip-rule="evenodd" d="M40.1337 71.1096C40.1337 71.1096 46.3192 73.5416 48.3143 72.9805L48.5128 75.2229L42.9273 74.1028L39.5351 71.8582L40.1337 71.1096Z" fill="#DCD9D8"/>
<path fill-rule="evenodd" clip-rule="evenodd" d="M80.5549 80.1639C77.1695 80.0707 74.1109 79.6936 71.4329 78.9854C71.6149 77.9563 71.2743 76.9462 71.5478 76.2049C72.2942 75.701 73.5452 75.7088 74.6735 75.5904C73.6979 75.1409 72.3272 74.9631 71.2013 75.2229C71.1749 74.5085 70.8332 74.0658 70.6261 73.5069C72.5295 72.8699 77.0228 68.6944 79.5506 70.0771C80.7548 70.7347 81.2666 74.4911 81.36 76.3177C81.4378 77.8328 81.2133 79.3614 80.5549 80.1639Z" fill="#D33833"/>
<path d="M80.5549 80.1639C77.1695 80.0707 74.1109 79.6936 71.4329 78.9854C71.6149 77.9563 71.2743 76.9462 71.5478 76.2049C72.2942 75.701 73.5452 75.7088 74.6735 75.5904C73.6979 75.1409 72.3272 74.9631 71.2013 75.2229C71.1749 74.5085 70.8332 74.0658 70.6261 73.5069C72.5295 72.8699 77.0228 68.6944 79.5506 70.0771C80.7548 70.7347 81.2666 74.4911 81.36 76.3177C81.4378 77.8328 81.2133 79.3614 80.5549 80.1639Z" stroke="#D33833" stroke-width="2.5"/>
<path fill-rule="evenodd" clip-rule="evenodd" d="M64.3658 74.9754C64.3568 75.2156 64.346 75.4574 64.3359 75.6999C63.2788 76.3508 61.5723 76.343 60.4123 76.8901C62.1224 76.9602 63.4685 77.3463 64.6333 77.8906C64.6076 78.4956 64.5831 79.0999 64.5579 79.7049C62.6204 80.9484 60.8505 82.8002 58.5692 83.9663C57.4906 84.5179 53.7052 85.937 52.5577 85.6862C51.9084 85.5448 51.85 84.7895 51.5904 84.0775C51.0375 82.5527 49.7643 80.1257 49.6533 77.8306C49.5119 74.9316 49.1997 70.0731 52.532 70.6702C55.2204 71.1511 58.3471 72.3121 60.4285 73.3784C61.7004 74.0304 62.436 74.8362 64.3658 74.9754Z" fill="#D33833"/>
<path d="M64.3658 74.9754C64.3568 75.2156 64.346 75.4574 64.3359 75.6999C63.2788 76.3508 61.5723 76.343 60.4123 76.8901C62.1224 76.9602 63.4685 77.3463 64.6333 77.8906C64.6076 78.4956 64.5831 79.0999 64.5579 79.7049C62.6204 80.9484 60.8505 82.8002 58.5692 83.9663C57.4906 84.5179 53.7052 85.937 52.5577 85.6862C51.9084 85.5448 51.85 84.7895 51.5904 84.0775C51.0375 82.5527 49.7643 80.1257 49.6533 77.8306C49.5119 74.9316 49.1997 70.0731 52.532 70.6702C55.2204 71.1511 58.3471 72.3121 60.4285 73.3784C61.7004 74.0304 62.436 74.8362 64.3658 74.9754Z" stroke="#D33833" stroke-width="2.5"/>
<path fill-rule="evenodd" clip-rule="evenodd" d="M66.2902 78.4344C65.9945 76.8553 65.6527 76.4047 65.785 75.0271C70.2772 72.219 71.1206 79.8502 66.2902 78.4344Z" fill="#D33833"/>
<path d="M66.2902 78.4344C65.9945 76.8553 65.6527 76.4047 65.785 75.0271C70.2772 72.219 71.1206 79.8502 66.2902 78.4344Z" stroke="#D33833" stroke-width="2.5"/>
<path fill-rule="evenodd" clip-rule="evenodd" d="M72.7947 79.7144C72.7947 79.7144 71.3976 77.8435 72.3954 77.2823C73.3932 76.7212 74.391 77.2829 74.9896 76.3474C75.5881 75.412 74.9896 74.8508 75.1889 73.7285C75.3882 72.6062 76.3866 72.4188 77.3838 72.2319C78.381 72.045 81.175 71.6707 81.5737 72.6062L80.3766 69.2392L77.9823 68.4912L70.4004 72.6062L70.0012 74.664V78.7789" fill="#EF3D3A"/>
<path fill-rule="evenodd" clip-rule="evenodd" d="M51.8453 85.8872C51.6056 82.968 51.352 80.0528 51.0697 77.1364C50.6475 72.7819 52.1855 73.5417 56.2117 73.5417C56.8267 73.5417 59.9981 74.2291 60.225 74.664C61.3131 76.7476 58.4054 76.2846 61.4783 77.8559C64.0725 79.1819 68.655 77.0506 67.607 74.1028C67.0204 73.4474 64.5507 73.8986 63.6655 73.4682C62.1068 72.7106 60.5482 71.953 58.9894 71.1955C57.0062 70.2308 52.4228 68.8246 50.3084 70.1725C44.9511 73.5882 50.6466 82.1229 52.5577 85.6862" fill="#EF3D3A"/>
<path fill-rule="evenodd" clip-rule="evenodd" d="M57.0956 19.6138C51.6576 18.4264 48.9555 21.7473 47.3071 25.1917C45.8352 24.8572 46.4209 22.9807 46.7927 22.0245C47.7661 19.515 51.6887 16.1744 54.8938 16.6273C56.273 16.822 58.1395 18.0044 57.0956 19.6138Z" fill="#231F20"/>
<path fill-rule="evenodd" clip-rule="evenodd" d="M83.5915 25.4195C83.6771 25.4229 83.7639 25.4257 83.8495 25.4291C85.0783 27.8224 86.1419 30.3577 87.6922 32.4705C86.6537 34.7381 79.8284 36.7448 79.9337 32.6731C81.4097 32.0681 83.9578 32.5496 85.2662 31.7769C84.5097 29.8302 83.4179 28.1731 83.5915 25.4195Z" fill="#231F20"/>
<path fill-rule="evenodd" clip-rule="evenodd" d="M59.8796 25.4818C61.0456 27.4857 61.4251 29.5912 63.0825 31.1057C63.8289 31.7876 65.2804 32.6186 64.561 34.5148C64.3928 34.962 63.1639 35.9592 62.4546 36.155C59.8635 36.8722 53.8257 36.3032 55.8704 33.2746C58.0133 33.3683 60.8936 34.5793 62.4953 33.1209C61.2653 31.2775 59.0724 27.6305 59.8796 25.4818Z" fill="#231F20"/>
<path fill-rule="evenodd" clip-rule="evenodd" d="M82.6187 45.8485C78.7173 48.1981 74.367 50.753 67.9745 50.1605C66.6085 49.0471 66.0878 46.5696 67.4148 44.9333C68.1055 46.0466 67.6716 48.0943 69.5965 48.4024C73.2238 48.9843 77.4454 46.3221 80.0545 45.3917C81.6724 42.8345 79.9151 41.894 78.4576 40.2482C75.4738 36.8762 71.4712 32.6966 71.6167 27.6485C72.8228 26.8286 72.9269 28.8999 73.0999 29.2769C74.6579 32.6955 78.5791 37.0675 81.4408 39.9934C82.1435 40.7139 83.3005 41.4053 83.4292 41.8817C83.8003 43.2672 82.4637 44.9271 82.6187 45.8485Z" fill="#231F20"/>
<path fill-rule="evenodd" clip-rule="evenodd" d="M31.1858 43.3749C29.9629 42.7206 29.6718 39.8385 28.2362 39.7566C26.1845 39.6398 26.5586 43.4956 26.5668 45.7503C25.1546 44.5483 24.9063 40.8474 25.9437 38.9468C24.7613 38.4025 24.2334 39.5472 23.5775 39.9507C24.4204 34.2101 32.5349 37.288 31.1858 43.3749Z" fill="#231F20"/>
<path fill-rule="evenodd" clip-rule="evenodd" d="M85.1028 48.239C83.2868 51.4797 80.7178 55.0487 75.3888 55.1525C75.2805 54.1059 75.1973 52.5134 75.3948 51.8832C79.4686 51.5162 81.9837 49.5723 85.1028 48.239Z" fill="#231F20"/>
<path fill-rule="evenodd" clip-rule="evenodd" d="M59.5723 50.34C62.9712 52.0156 69.2177 52.1958 73.8374 52.0689C74.0852 53.0179 74.0792 54.1901 74.0888 55.3472C68.1505 55.625 61.1294 54.2474 59.5723 50.34Z" fill="#231F20"/>
<path fill-rule="evenodd" clip-rule="evenodd" d="M58.9263 53.4645C61.2767 58.997 69.3548 58.3601 76.167 58.2074C75.8671 58.9257 75.2171 59.7742 74.409 60.0811C72.2261 60.9139 66.2052 61.5458 63.1747 60.0368C61.2527 59.0789 60.0179 56.9145 58.9649 55.6457C58.4563 55.033 55.9241 53.4679 58.9263 53.4645Z" fill="#231F20"/>
<path fill-rule="evenodd" clip-rule="evenodd" d="M82.3351 83.9819C79.5769 88.4107 76.9379 92.9594 73.6656 96.8658C75.0375 93.0841 75.6247 86.7546 75.8318 81.9293C78.7018 80.67 81.1595 82.2127 82.3351 83.9819Z" fill="#81B0C4"/>
<path fill-rule="evenodd" clip-rule="evenodd" d="M97.1769 99.8993C94.0889 100.479 91.9192 103.293 88.9066 103.112C90.5622 100.924 93.4634 100.001 97.1769 99.8993Z" fill="#231F20"/>
<path fill-rule="evenodd" clip-rule="evenodd" d="M98.5392 104.43C96.0223 104.679 93.066 105.061 90.5132 104.864C91.7217 103.134 96.3778 103.731 98.5392 104.43Z" fill="#231F20"/>
<path fill-rule="evenodd" clip-rule="evenodd" d="M99.4113 108.336C96.5825 108.394 93.0666 108.341 90.3779 108.129C91.9682 106.528 97.5767 107.535 99.4113 108.336Z" fill="#231F20"/>
<path fill-rule="evenodd" clip-rule="evenodd" d="M77.0127 119.026C77.4186 122.356 78.827 125.731 78.6504 129.379C77.0864 129.873 76.1879 130.306 74.0924 130.303C73.9445 127.203 73.5022 122.464 73.6345 119.509C74.6652 119.573 76.1849 118.819 77.0127 119.026Z" fill="#DCD9D8"/>
<path fill-rule="evenodd" clip-rule="evenodd" d="M72.4523 69.9401C71.0319 70.8094 69.8222 71.8947 68.4581 72.8228C65.433 72.9631 63.7822 72.6264 61.5597 70.9979C61.5962 70.8672 61.8195 70.9255 61.8279 70.765C65.0661 72.118 69.1823 70.214 72.4523 69.9401Z" fill="#F0D6B7"/>
<path fill-rule="evenodd" clip-rule="evenodd" d="M55.453 90.6345C56.3427 87.0201 59.8288 85.1481 62.9945 83.1577C66.262 87.0455 68.2492 92.0453 70.4375 96.8701C65.2672 95.4089 59.9843 93.0381 55.453 90.6345Z" fill="#81B0C4"/>
<path fill-rule="evenodd" clip-rule="evenodd" d="M73.6344 119.509C73.5022 122.464 73.9445 127.203 74.0923 130.303C76.1879 130.306 77.0863 129.873 78.6504 129.379C78.8269 125.731 77.4185 122.356 77.0127 119.026C76.1849 118.819 74.6652 119.573 73.6344 119.509ZM41.0047 102.703C42.3865 114.612 44.3879 124.624 48.0587 135.17C56.2059 137.489 66.0274 137.691 73.2286 135.598C71.9064 129.646 72.484 122.4 71.7113 116.048C71.1289 111.274 71.4258 106.47 70.6273 101.599C61.9015 99.8971 49.568 101.201 41.0047 102.703ZM72.6905 101.674C72.6169 106.789 72.9347 111.834 73.3513 116.955C75.4463 116.66 76.8679 116.464 78.8144 116.063C78.1823 111.133 78.2601 105.585 76.9726 101.224C75.4846 101.238 74.1743 101.208 72.6905 101.674ZM83.3179 100.849C82.3237 100.636 81.1661 100.841 80.2162 100.858C80.6627 105.028 81.7461 109.629 82.1274 114.005C83.622 114.049 84.4204 113.388 85.6499 113.166C85.7157 109.324 85.2919 104.031 83.3179 100.849ZM99.4095 114.633C102.525 113.924 104.484 110.346 103.613 106.672C103.028 104.203 101.986 99.554 100.872 97.9745C100.048 96.8062 97.8149 95.2766 96.0318 96.3471C93.1312 98.0885 88.0214 98.594 85.9061 100.702C86.9667 104.013 87.2959 108.56 87.7335 112.755C91.3571 112.967 95.8158 111.82 98.8295 113.037C96.7256 113.676 93.9956 113.681 92.1777 114.612C93.6634 115.285 97.1416 115.149 99.4095 114.633ZM70.4376 96.8701C68.2492 92.0453 66.262 87.0455 62.9945 83.1577C59.8288 85.1481 56.3427 87.0201 55.453 90.6345C59.9844 93.038 65.2672 95.4089 70.4376 96.8701ZM75.8318 81.9293C75.6247 86.7546 75.0375 93.0841 73.6656 96.8658C76.9379 92.9594 79.5769 88.4107 82.3351 83.9819C81.1595 82.2127 78.7018 80.6701 75.8318 81.9293ZM69.7169 79.8923C68.4773 79.7672 67.425 81.2284 65.8131 80.5965C65.4438 80.9793 65.108 81.3939 64.7315 81.7677C68.2917 85.7901 69.9096 91.497 72.6594 96.2241C74.1348 91.6833 73.9649 86.7086 74.2899 81.7525C72.2626 81.8732 71.1379 80.0337 69.7169 79.8923ZM65.785 75.027C65.6527 76.4047 65.9945 76.8553 66.2902 78.4344C71.1205 79.8502 70.2771 72.219 65.785 75.027ZM60.4285 73.3784C58.3471 72.3122 55.2204 71.1511 52.532 70.6702C49.1997 70.0726 49.5119 74.9316 49.6533 77.8306C49.7644 80.1257 51.0375 82.5527 51.5904 84.0775C51.85 84.7895 51.9085 85.5448 52.5577 85.6862C53.7053 85.937 57.4907 84.5179 58.5693 83.9664C60.8505 82.8002 62.6204 80.9484 64.5579 79.7049C64.5831 79.0999 64.6076 78.4956 64.6334 77.8906C63.4686 77.3463 62.1224 76.9602 60.4123 76.8901C61.5723 76.343 63.2788 76.3508 64.3359 75.6999C64.346 75.4575 64.3568 75.2156 64.3658 74.9754C62.4361 74.8363 61.7004 74.0304 60.4285 73.3784ZM40.5483 69.9929C38.8208 71.6371 45.3933 73.8784 47.4859 73.999C47.4742 72.9586 48.1183 71.9777 47.9886 71.2314C45.5032 70.8223 42.2369 71.0922 40.5483 69.9929ZM61.8279 70.765C61.8195 70.9255 61.5963 70.8672 61.5598 70.9979C63.7822 72.6264 65.433 72.9631 68.4581 72.8228C69.8222 71.8947 71.0319 70.8094 72.4523 69.9401C69.1824 70.214 65.0661 72.118 61.8279 70.765ZM81.36 76.3177C81.2667 74.4911 80.7549 70.7347 79.5506 70.0771C77.0229 68.6938 72.5295 72.87 70.6261 73.5069C70.8332 74.0658 71.175 74.5085 71.2013 75.2229C72.3272 74.9631 73.6979 75.141 74.6735 75.5904C73.5453 75.7089 72.2943 75.701 71.5479 76.2049C71.2743 76.9462 71.6149 77.9563 71.433 78.9855C74.1109 79.6936 77.1695 80.0707 80.555 80.1639C81.2134 79.3614 81.4378 77.8328 81.36 76.3177ZM37.6401 71.5832C37.0976 71.2207 33.428 66.7443 32.9253 66.9301C26.2851 69.3852 20.0762 73.6303 14.5279 77.6454C19.8178 88.2873 21.9533 101.325 22.3306 113.892C28.3905 116.549 33.7132 120.379 41.9364 120.779C40.9848 114.468 40.1162 108.836 39.576 102.894C37.5099 102.077 34.5456 102.931 32.612 102.64C32.5956 100.456 35.565 101.684 35.8124 100.215C35.9988 99.1036 34.1785 99.0194 34.7712 97.2697C36.2828 97.7849 37.0766 98.9227 38.6887 99.35C40.1618 96.3287 38.6681 90.983 38.8804 88.4578C38.9207 87.9837 39.133 85.8311 40.2658 86.2088C41.2684 86.5431 40.2085 91.9337 40.3184 94.3237C40.4185 96.5256 40.0348 98.6562 40.9859 100.038C48.932 99.0245 57.0067 98.369 65.6042 98.1479C63.7128 97.387 61.4658 96.6669 59.0023 95.3651C57.6668 94.6593 53.457 93.1906 53.0716 92.0014C52.4567 90.1064 54.6849 89.097 55.066 87.4725C51.055 89.5233 50.2725 85.5067 49.3236 82.661C48.4639 80.0836 47.9746 78.1583 47.7636 76.6718C44.3084 75.1275 40.6142 73.5635 37.6401 71.5832ZM77.8507 67.4716C83.3831 64.9565 84.3803 76.8716 82.2118 80.7099C82.547 81.8547 83.6998 82.2929 84.1702 83.3221C81.0829 88.5071 77.6538 93.3471 74.5036 98.4712C76.8469 97.1036 80.194 98.2266 82.9516 97.2029C83.9596 96.8292 84.6892 94.6658 85.4524 92.9352C87.5515 88.1739 89.7554 82.1712 90.7358 77.6275C90.9573 76.5921 91.5606 74.3363 91.4253 73.4148C91.1841 71.765 88.7965 70.5417 87.582 69.5215C85.3446 67.6371 83.9356 65.9789 81.6018 64.2169C80.6555 65.5266 78.6246 66.4065 77.8507 67.4716ZM24.9874 21.4746C22.3512 24.1939 22.903 29.2893 23.2221 32.9143C27.9872 30.1041 34.3118 33.1366 34.2522 37.9165C36.5272 37.8598 35.1021 35.2527 34.6905 33.5731C33.3457 28.0873 36.9562 22.1272 34.8543 17.1104C30.7731 17.4006 27.4202 18.9634 24.9874 21.4746ZM43.8501 5.69144C37.8821 7.27727 30.2334 11.3429 27.781 16.3692C29.68 16.1105 30.9982 15.2126 32.8715 15.1015C33.5795 15.0583 34.507 15.3798 35.3207 15.1902C36.9422 14.8131 38.3107 11.4046 39.5339 10.1364C40.7264 8.89789 42.1596 8.36872 43.1405 7.23967C43.7707 6.9546 44.7024 6.97424 44.7382 6.08705C44.465 5.81321 44.1774 5.60446 43.8501 5.69144ZM74.9172 7.18299C68.7227 3.90638 58.2377 1.44178 51.6484 4.52142C46.3316 7.00679 39.1446 11.119 36.6943 16.3299C38.9833 21.3584 36.0163 25.9661 35.8269 31.0715C35.7263 33.7881 37.1912 36.1595 37.3034 39.1168C36.5202 40.3284 34.1271 40.4776 32.4705 40.3946C31.9129 37.7785 30.9367 34.838 28.0632 34.5428C23.9972 34.1259 21.0243 37.2807 20.8396 40.5775C20.621 44.4546 24.0159 50.8804 28.8277 50.4343C30.6866 50.262 31.1432 48.5151 33.1685 48.5331C34.2662 50.5864 31.4752 51.2311 31.1881 52.6997C31.1133 53.079 31.4196 54.5616 31.5977 55.2569C32.4717 58.6423 34.4201 63.0239 36.3378 65.6013C38.7717 68.8706 43.5537 69.3633 48.6982 69.6837C49.6171 67.8279 53.002 67.9806 55.2075 68.466C52.5643 67.4845 50.1069 65.1052 48.0704 62.9992C45.7311 60.5828 43.3615 57.9908 43.2418 54.8326C47.6624 60.5823 51.3146 65.6035 59.353 68.1326C65.4354 70.0451 72.5391 67.2561 77.2126 64.1793C79.1519 62.9004 80.3096 60.8713 81.688 59.0138C86.8458 52.0583 89.2526 42.1303 88.7235 32.5075C88.5056 28.539 88.5152 24.584 87.0948 21.914C85.6104 19.1222 80.5897 16.6245 77.6508 19.1497C77.1061 16.4348 80.0947 14.7558 83.6052 15.7328C81.102 12.7042 78.475 9.06511 74.9172 7.18299ZM86.4579 96.7255C91.2985 94.4694 100.343 90.6531 103.377 96.7338C104.497 98.9752 105.811 102.764 106.391 105.078C107.21 108.342 105.503 115.203 101.924 116.298C98.7631 117.265 95.0748 117.206 91.2673 116.489C90.819 116.14 90.3198 115.53 89.9709 114.895C87.2522 114.796 84.7066 115.032 82.5589 116.08C82.7624 117.965 81.4025 118.267 80.1276 118.655C79.1825 122.169 82.0184 126.757 81.3397 129.961C80.8554 132.243 77.8603 132.596 75.6588 133.023C75.5869 134.291 75.7551 135.35 75.9054 136.423C75.402 138.162 73.1442 139.152 71.005 139.394C63.9666 140.188 53.2797 140.544 46.5097 138.262C44.6205 133.917 43.1323 128.633 41.5587 123.673C34.9559 124.334 29.6157 121.002 24.5813 118.819C22.8382 118.061 20.4269 117.644 19.7758 116.343C19.1445 115.084 19.4028 112.67 19.2462 110.39C18.8475 104.567 18.5062 98.9504 16.8659 92.988C16.1295 90.3125 14.8458 87.9516 13.9503 85.3736C13.1226 82.9843 11.6765 80.0315 11.2994 77.6488C10.7401 74.1174 14.287 73.921 16.555 72.3907C20.061 70.0243 22.813 68.7157 26.61 66.5799C27.7347 65.9475 31.1261 64.3465 31.5119 63.6092C32.2788 62.1473 30.1956 60.0862 29.6386 58.9403C28.7576 57.1283 28.2981 55.5891 28.1719 53.8012C24.9867 53.3293 22.5721 51.5521 21.1136 49.5482C18.7009 46.2318 17.0277 40.0961 19.1152 35.4289C19.2789 35.0613 20.0953 34.3386 20.2158 33.774C20.4533 32.6624 19.7687 31.1843 19.7261 30.0019C19.5068 23.9358 20.8209 18.7092 25.1768 16.8798C26.9451 10.2755 33.2741 8.07972 39.237 4.79751C41.466 3.57082 43.923 2.78688 46.4606 1.91147C55.5636 -1.22934 69.5301 -0.637871 77.0851 4.71895C80.2886 6.99052 85.4093 11.7867 87.2408 15.2592C92.0784 24.4268 91.7348 39.7481 88.3512 50.9C87.8963 52.3972 87.2367 54.5981 86.3155 56.3966C85.6732 57.6525 83.677 60.1653 83.9195 61.2742C84.1691 62.4206 88.4709 65.4829 89.3933 66.3167C91.0542 67.819 94.2098 69.8128 94.4654 71.7084C94.7402 73.7257 93.5173 76.4855 92.8978 78.4322C90.8268 84.9286 88.8061 90.9337 86.4579 96.7255Z" fill="#231F20"/>
<path fill-rule="evenodd" clip-rule="evenodd" d="M54.164 51.7553C54.4266 51.4275 55.8704 50.9298 57.8905 51.8417C57.8905 51.8417 55.4963 52.216 55.6955 55.9583L54.6978 55.7709C54.6978 55.7709 53.6668 52.3776 54.164 51.7553Z" fill="#F7E4CD"/>
<path fill-rule="evenodd" clip-rule="evenodd" d="M71.6574 83.9214C71.6574 84.4893 71.166 84.9499 70.5597 84.9499C69.9539 84.9499 69.4625 84.4893 69.4625 83.9214C69.4625 83.3535 69.9539 82.8922 70.5597 82.8922C71.166 82.8922 71.6574 83.3535 71.6574 83.9214Z" fill="#1D1919"/>
<path fill-rule="evenodd" clip-rule="evenodd" d="M72.7546 88.6913C72.7546 89.2592 72.2632 89.7198 71.6568 89.7198C71.0511 89.7198 70.5597 89.2592 70.5597 88.6913C70.5597 88.1233 71.0511 87.6621 71.6568 87.6621C72.2632 87.6621 72.7546 88.1233 72.7546 88.6913Z" fill="#1D1919"/>
</svg>
