<svg width="120" height="120" viewBox="0 0 120 120" fill="none" xmlns="http://www.w3.org/2000/svg">
<path d="M119.509 67.6186C123.709 34.7446 100.493 4.68997 67.6786 0.490726C34.8645 -3.70852 4.68997 19.5073 0.490726 52.3214C-3.70852 85.1355 19.5073 115.25 52.3214 119.509C85.1955 123.709 115.25 100.493 119.509 67.6186Z" fill="#FF6C37"/>
<path d="M81.6561 38.5239L56.3406 63.8393L49.2019 56.7006C74.0974 31.8051 76.557 33.9647 81.6561 38.5239Z" fill="white"/>
<path d="M56.3407 64.4392C56.1607 64.4392 56.0407 64.3792 55.9207 64.2592L48.722 57.1205C48.4821 56.8805 48.4821 56.5206 48.722 56.2807C74.0375 30.9652 76.677 33.3648 82.016 38.1639C82.136 38.2839 82.196 38.4039 82.196 38.5838C82.196 38.7638 82.136 38.8838 82.016 39.0038L56.7006 64.2592C56.6406 64.3792 56.4606 64.4392 56.3407 64.4392ZM50.0418 56.7006L56.3407 62.9994L80.7563 38.5838C76.3171 34.6246 73.3176 33.4248 50.0418 56.7006Z" fill="#FF6C37"/>
<path d="M63.5993 71.098L56.7006 64.1992L82.016 38.8838C88.7948 45.7226 78.6566 56.8206 63.5993 71.098Z" fill="white"/>
<path d="M63.5993 71.6979C63.4194 71.6979 63.2994 71.6379 63.1794 71.5179L56.2807 64.6192C56.1607 64.4992 56.1607 64.3792 56.1607 64.1992C56.1607 64.0193 56.2207 63.8993 56.3406 63.7793L81.6561 38.4639C81.896 38.2239 82.256 38.2239 82.4959 38.4639C84.0556 39.9036 84.8955 41.9432 84.8355 44.0429C84.7155 50.7017 77.1569 59.1601 64.0792 71.5179C63.8993 71.6379 63.7193 71.6979 63.5993 71.6979ZM57.5404 64.1992C61.3797 68.0985 62.9994 69.6583 63.5993 70.2581C73.6775 60.6599 83.4558 50.8216 83.5157 44.0429C83.5757 42.4831 82.9758 40.9234 81.956 39.7236L57.5404 64.1992Z" fill="#FF6C37"/>
<path d="M49.3219 56.8806L54.421 61.9797C54.541 62.0996 54.541 62.2196 54.421 62.3396C54.361 62.3996 54.361 62.3996 54.301 62.3996L43.7429 64.6792C43.203 64.7392 42.7231 64.3792 42.6031 63.8393C42.5431 63.5394 42.6631 63.2394 42.8431 63.0595L48.962 56.9406C49.082 56.8206 49.2619 56.7606 49.3219 56.8806Z" fill="white"/>
<path d="M43.563 65.2791C42.6631 65.2791 42.0032 64.5592 42.0032 63.6593C42.0032 63.2394 42.1832 62.8195 42.4831 62.5195L48.602 56.4006C48.962 56.1007 49.4419 56.1007 49.8018 56.4006L54.9009 61.4997C55.2608 61.7997 55.2608 62.3396 54.9009 62.6995C54.7809 62.8195 54.661 62.8795 54.481 62.9395L43.9229 65.2191C43.8029 65.2191 43.6829 65.2791 43.563 65.2791ZM49.1419 57.5404L43.263 63.4194C43.143 63.5394 43.083 63.7193 43.203 63.8993C43.263 64.0793 43.443 64.1393 43.6229 64.0793L53.5212 61.9197L49.1419 57.5404Z" fill="#FF6C37"/>
<path d="M95.0337 24.4864C91.1944 20.7671 85.0155 20.8871 81.2962 24.7863C77.5768 28.6856 77.6968 34.8045 81.5961 38.5239C84.7755 41.5833 89.5747 42.1232 93.354 39.8436L86.5152 33.0049L95.0337 24.4864Z" fill="white"/>
<path d="M88.3149 41.8233C82.6159 41.8233 77.9968 37.2041 77.9968 31.5051C77.9968 25.8062 82.6159 21.187 88.3149 21.187C90.9544 21.187 93.534 22.2068 95.4536 24.0665C95.5736 24.1864 95.6336 24.3064 95.6336 24.4864C95.6336 24.6664 95.5736 24.7863 95.4536 24.9063L87.3551 33.0049L93.7139 39.3637C93.9539 39.6037 93.9539 39.9636 93.7139 40.2036C93.6539 40.2635 93.6539 40.2635 93.594 40.3235C92.0342 41.2834 90.1746 41.8233 88.3149 41.8233ZM88.3149 22.4468C83.2758 22.4468 79.1965 26.526 79.2565 31.5651C79.2565 36.6042 83.3358 40.6835 88.3749 40.6235C89.7546 40.6235 91.1344 40.3235 92.3942 39.6637L86.0953 33.4248C85.9753 33.3048 85.9153 33.1848 85.9153 33.0049C85.9153 32.8249 85.9753 32.7049 86.0953 32.5849L94.1339 24.5464C92.5142 23.1666 90.4745 22.4468 88.3149 22.4468Z" fill="#FF6C37"/>
<path d="M95.2136 24.6664L95.0937 24.5464L86.5152 33.0049L93.294 39.7836C93.9539 39.3637 94.6137 38.8838 95.1536 38.3439C98.9929 34.5646 98.9929 28.4457 95.2136 24.6664Z" fill="white"/>
<path d="M93.354 40.4435C93.174 40.4435 93.054 40.3835 92.934 40.2636L86.0953 33.4248C85.9753 33.3048 85.9153 33.1848 85.9153 33.0049C85.9153 32.8249 85.9753 32.7049 86.0953 32.5849L94.6137 24.0665C94.8537 23.8265 95.2136 23.8265 95.4536 24.0665L95.6336 24.1865C99.6528 28.2057 99.6528 34.6846 95.6936 38.7638C95.0937 39.3637 94.4338 39.9036 93.7139 40.3235C93.5339 40.3835 93.414 40.4435 93.354 40.4435ZM87.3551 33.0049L93.414 39.0638C93.8939 38.7638 94.3738 38.3439 94.7337 37.984C98.1531 34.5646 98.3331 28.9856 95.0337 25.3862L87.3551 33.0049Z" fill="#FF6C37"/>
<path d="M82.6759 39.6037C81.2362 38.164 78.8966 38.164 77.4569 39.6037L54.8409 62.2196L58.6203 65.999L82.5559 45.0027C84.1157 43.683 84.2356 41.3434 82.9159 39.7837C82.7959 39.7237 82.7359 39.6637 82.6759 39.6037Z" fill="white"/>
<path d="M58.5603 66.5988C58.3803 66.5988 58.2603 66.5389 58.1403 66.4189L54.361 62.6396C54.1211 62.3996 54.1211 62.0397 54.361 61.7997L76.977 39.1838C78.6567 37.5041 81.3562 37.5041 83.0359 39.1838C84.7156 40.8635 84.7156 43.563 83.0359 45.2427C82.9759 45.3027 82.9159 45.3627 82.8559 45.4227L58.9202 66.4189C58.8602 66.5389 58.7402 66.5988 58.5603 66.5988ZM55.6808 62.2196L58.6203 65.1591L82.136 44.5228C83.4558 43.443 83.5758 41.4634 82.496 40.1436C81.4162 38.8238 79.4365 38.7039 78.1167 39.7837C78.0568 39.8437 77.9968 39.9037 77.8768 39.9636L55.6808 62.2196Z" fill="#FF6C37"/>
<path d="M37.5041 87.955C37.2641 88.075 37.1441 88.3149 37.2041 88.5549L38.2239 92.8741C38.4639 93.474 38.104 94.1939 37.4441 94.3738C36.9642 94.5538 36.4243 94.3738 36.1243 94.0139L29.5255 87.4751L51.0616 65.939L58.5003 66.0589L63.5394 71.098C62.3396 72.1179 55.0809 79.1366 37.5041 87.955Z" fill="white"/>
<path d="M37.0242 94.9737C36.5442 94.9737 36.0643 94.7938 35.7644 94.4338L29.2256 87.895C29.1056 87.775 29.0456 87.655 29.0456 87.4751C29.0456 87.2951 29.1056 87.1751 29.2256 87.0551L50.7617 65.519C50.8817 65.399 51.0616 65.3391 51.1816 65.3391L58.6203 65.459C58.8002 65.459 58.9202 65.519 59.0402 65.639L64.0793 70.6781C64.1993 70.7981 64.2592 70.978 64.2592 71.158C64.2592 71.338 64.1993 71.4579 64.0193 71.5779L63.5994 71.9379C57.2405 77.5169 48.6021 83.0959 37.864 88.4349L38.8838 92.6941C39.0638 93.474 38.7039 94.3138 37.984 94.7338C37.624 94.9137 37.3241 94.9737 37.0242 94.9737ZM30.4253 87.4751L36.6042 93.594C36.7842 93.8939 37.1441 94.0139 37.4441 93.8339C37.744 93.654 37.864 93.294 37.684 92.9941L36.6642 88.6748C36.5442 88.1349 36.7842 87.655 37.2641 87.4151C47.8822 82.076 56.4607 76.557 62.7595 71.098L58.3203 66.6588L51.4216 66.5388L30.4253 87.4751Z" fill="#FF6C37"/>
<path d="M24.4264 92.6341L29.5855 87.4751L37.2641 95.1537L25.0263 94.3138C24.4864 94.2538 24.1265 93.7739 24.1865 93.234C24.1865 92.9941 24.2465 92.7541 24.4264 92.6341Z" fill="white"/>
<path d="M37.2641 95.6936L24.9663 94.8538C24.0665 94.7938 23.4666 94.0139 23.5266 93.1141C23.5866 92.7541 23.7066 92.3942 24.0065 92.1543L29.1656 86.9952C29.4055 86.7552 29.7655 86.7552 30.0054 86.9952L37.684 94.6738C37.864 94.8538 37.924 95.0937 37.804 95.3337C37.684 95.5736 37.5041 95.6936 37.2641 95.6936ZM29.5855 88.3149L24.8463 93.0541C24.6664 93.1741 24.6664 93.474 24.8463 93.594C24.9063 93.654 24.9663 93.714 25.0863 93.714L35.7044 94.4338L29.5855 88.3149Z" fill="#FF6C37"/>
<path d="M48.962 68.6984C48.602 68.6984 48.3621 68.3985 48.3621 68.0985C48.3621 67.9186 48.422 67.7986 48.542 67.6786L54.361 61.8597C54.6009 61.6197 54.9609 61.6197 55.2008 61.8597L58.9801 65.639C59.1601 65.8189 59.2201 65.9989 59.1601 66.2389C59.1001 66.4188 58.9202 66.5988 58.6802 66.6588L49.0819 68.6984C49.0219 68.6984 48.962 68.6984 48.962 68.6984ZM54.7809 63.1194L50.8216 67.0787L57.3004 65.699L54.7809 63.1194Z" fill="#FF6C37"/>
<path d="M58.5003 66.0589L51.9015 67.4986C51.4215 67.6186 50.9416 67.3187 50.8217 66.8388C50.7617 66.5388 50.8217 66.2389 51.0616 65.9989L54.721 62.3396L58.5003 66.0589Z" fill="white"/>
<path d="M51.7815 68.0985C50.9416 68.0985 50.2817 67.4387 50.2817 66.5988C50.2817 66.1789 50.4617 65.8189 50.7017 65.519L54.361 61.8597C54.601 61.6197 54.9609 61.6197 55.2009 61.8597L58.9802 65.639C59.1601 65.8189 59.2201 65.9989 59.1601 66.2389C59.1001 66.4188 58.9202 66.5988 58.6802 66.6588L52.0814 68.0985C51.9614 68.0985 51.8415 68.0985 51.7815 68.0985ZM54.7809 63.1194L51.5415 66.3588C51.4215 66.4788 51.4215 66.5988 51.4815 66.7188C51.5415 66.8388 51.6615 66.8987 51.8415 66.8987L57.3605 65.699L54.7809 63.1194Z" fill="#FF6C37"/>
<path d="M95.2736 30.4253C95.1537 30.0654 94.7337 29.8854 94.3738 30.0054C94.0139 30.1254 93.8339 30.5453 93.9539 30.9052C93.9539 30.9652 94.0139 31.0252 94.0139 31.0852C94.3738 31.8051 94.2538 32.7049 93.7739 33.3648C93.534 33.6647 93.5939 34.0847 93.8339 34.3246C94.1338 34.5646 94.5538 34.5046 94.7937 34.2046C95.6936 33.0648 95.8735 31.6251 95.2736 30.4253Z" fill="#FF6C37"/>
</svg>
